<svg xmlns="http://www.w3.org/2000/svg" viewBox="0 0 120 120">
  <defs>
    <linearGradient id="squirrelGradient" x1="0%" y1="0%" x2="100%" y2="100%">
      <stop offset="0%" style="stop-color:#FF9D42;stop-opacity:1" />
      <stop offset="100%" style="stop-color:#FF7E21;stop-opacity:1" />
    </linearGradient>
    <filter id="squirrelShadow">
      <feDropShadow dx="0" dy="2" stdDeviation="2" flood-opacity="0.3" />
    </filter>
  </defs>
  <g filter="url(#squirrelShadow)">
    <path fill="url(#squirrelGradient)" d="M60,10 C40,10 20,30 20,50 C20,70 40,110 60,110 C80,110 100,70 100,50 C100,30 80,10 60,10 Z" />
    <path fill="#FFF" d="M75,45 C70,40 65,40 60,45 C55,40 50,40 45,45 C35,55 40,75 60,85 C80,75 85,55 75,45 Z" />
    <circle fill="#663300" cx="50" cy="45" r="5" />
    <circle fill="#663300" cx="70" cy="45" r="5" />
    <path fill="none" stroke="#663300" stroke-width="2" d="M55,65 Q60,70 65,65" />
  </g>
</svg>